<svg width="28" height="28" viewBox="0 0 28 28" fill="none" xmlns="http://www.w3.org/2000/svg">
<path d="M8.16667 4.66663C5.6 4.66663 3.5 6.76663 3.5 9.33329C3.5 11.9 5.6 14 8.16667 14C10.7333 14 12.8333 11.9 12.8333 9.33329C12.8333 6.76663 10.7333 4.66663 8.16667 4.66663ZM8.16667 11.6666C6.88333 11.6666 5.83333 10.6166 5.83333 9.33329C5.83333 8.04996 6.88333 6.99996 8.16667 6.99996C9.45 6.99996 10.5 8.04996 10.5 9.33329C10.5 10.6166 9.45 11.6666 8.16667 11.6666ZM8.16667 16.3333C3.61667 16.3333 0 18.4333 0 21V23.3333H12.8333V21H2.33333C2.33333 20.3 4.43333 18.6666 8.16667 18.6666C10.2667 18.6666 11.9 19.25 12.8333 19.8333V17.2666C11.55 16.6833 9.91667 16.3333 8.16667 16.3333ZM25.6667 4.66663H17.5C16.2167 4.66663 15.1667 5.71663 15.1667 6.99996V21C15.1667 22.2833 16.2167 23.3333 17.5 23.3333H25.6667C26.95 23.3333 28 22.2833 28 21V6.99996C28 5.71663 26.95 4.66663 25.6667 4.66663ZM18.6667 21H17.5V6.99996H18.6667V21ZM25.6667 21H21V6.99996H25.6667V21Z" fill="#999999"/>
</svg>
