<svg width="28" height="28" viewBox="0 0 28 28" fill="none" xmlns="http://www.w3.org/2000/svg">
<path d="M8.16667 12.8333H10.5V15.1666H8.16667V12.8333ZM24.5 5.83329V22.1666C24.5 23.4616 23.4617 24.5 22.1667 24.5H5.83333C5.21449 24.5 4.621 24.2541 4.18342 23.8165C3.74583 23.379 3.5 22.7855 3.5 22.1666V5.83329C3.5 4.54996 4.55 3.49996 5.83333 3.49996H7V1.16663H9.33333V3.49996H18.6667V1.16663H21V3.49996H22.1667C22.7855 3.49996 23.379 3.74579 23.8166 4.18338C24.2542 4.62096 24.5 5.21445 24.5 5.83329ZM5.83333 8.16663H22.1667V5.83329H5.83333V8.16663ZM22.1667 22.1666V10.5H5.83333V22.1666H22.1667ZM17.5 15.1666V12.8333H19.8333V15.1666H17.5ZM12.8333 15.1666V12.8333H15.1667V15.1666H12.8333ZM8.16667 17.5H10.5V19.8333H8.16667V17.5ZM17.5 19.8333V17.5H19.8333V19.8333H17.5ZM12.8333 19.8333V17.5H15.1667V19.8333H12.8333Z" fill="#999999"/>
</svg>
