<svg width="28" height="28" viewBox="0 0 28 28" fill="none" xmlns="http://www.w3.org/2000/svg">
<path fill-rule="evenodd" clip-rule="evenodd" d="M14 9.625C12.8397 9.625 11.7269 10.0859 10.9064 10.9064C10.0859 11.7269 9.625 12.8397 9.625 14C9.625 15.1603 10.0859 16.2731 10.9064 17.0936C11.7269 17.9141 12.8397 18.375 14 18.375C15.1603 18.375 16.2731 17.9141 17.0936 17.0936C17.9141 16.2731 18.375 15.1603 18.375 14C18.375 12.8397 17.9141 11.7269 17.0936 10.9064C16.2731 10.0859 15.1603 9.625 14 9.625ZM11.375 14C11.375 13.3038 11.6516 12.6361 12.1438 12.1438C12.6361 11.6516 13.3038 11.375 14 11.375C14.6962 11.375 15.3639 11.6516 15.8562 12.1438C16.3484 12.6361 16.625 13.3038 16.625 14C16.625 14.6962 16.3484 15.3639 15.8562 15.8562C15.3639 16.3484 14.6962 16.625 14 16.625C13.3038 16.625 12.6361 16.3484 12.1438 15.8562C11.6516 15.3639 11.375 14.6962 11.375 14Z" fill="black" fill-opacity="0.6"/>
<path fill-rule="evenodd" clip-rule="evenodd" d="M13.9708 1.45837C13.4517 1.45837 13.0188 1.45837 12.6642 1.48171C12.3016 1.49631 11.944 1.57122 11.606 1.70337C11.2166 1.86448 10.8628 2.10071 10.5647 2.39858C10.2667 2.69644 10.0302 3.05011 9.86882 3.43937C9.69966 3.84771 9.65416 4.27937 9.63549 4.74837C9.63341 4.91985 9.58791 5.08801 9.50324 5.23715C9.41858 5.38628 9.2975 5.51153 9.15132 5.60121C9.00062 5.68325 8.83158 5.72575 8.65999 5.72473C8.4884 5.72371 8.31988 5.6792 8.17016 5.59537C7.75482 5.37604 7.35816 5.19987 6.91949 5.14154C6.50176 5.08659 6.0773 5.11446 5.67034 5.22356C5.26338 5.33266 4.88189 5.52084 4.54766 5.77737C4.26462 6.00426 4.02134 6.27671 3.82782 6.58354C3.62949 6.87987 3.41249 7.25437 3.15349 7.70354L3.12432 7.75487C2.86416 8.20404 2.64832 8.57854 2.49199 8.89821C2.32866 9.23187 2.20032 9.56087 2.15366 9.92487C2.04236 10.7684 2.27065 11.6215 2.78833 12.2967C3.05783 12.6479 3.40899 12.9034 3.80566 13.153C3.9534 13.2406 4.07649 13.3643 4.16341 13.5124C4.25034 13.6606 4.29825 13.8283 4.30266 14C4.29825 14.1717 4.25034 14.3395 4.16341 14.4877C4.07649 14.6358 3.9534 14.7594 3.80566 14.847C3.40899 15.0967 3.05899 15.3522 2.78833 15.7034C2.53179 16.0376 2.34361 16.4191 2.23451 16.8261C2.12542 17.233 2.09754 17.6575 2.15249 18.0752C2.20032 18.4392 2.32749 18.7682 2.49082 19.1019C2.64832 19.4215 2.86416 19.796 3.12432 20.2452L3.15349 20.2965C3.41249 20.7457 3.62949 21.1202 3.82782 21.4165C4.03432 21.7234 4.25599 21.9999 4.54766 22.2215C4.8818 22.4783 5.26325 22.6667 5.67021 22.776C6.07718 22.8853 6.50168 22.9133 6.91949 22.8585C7.35816 22.8002 7.75482 22.6252 8.17016 22.4047C8.31973 22.3211 8.48805 22.2767 8.65941 22.2757C8.83077 22.2747 8.9996 22.317 9.15016 22.3989C9.29753 22.4874 9.41966 22.6124 9.50485 22.7617C9.59004 22.9111 9.63543 23.0798 9.63666 23.2517C9.65416 23.7207 9.69966 24.1524 9.86999 24.5607C10.0311 24.9501 10.2673 25.3039 10.5652 25.602C10.8631 25.9 11.2167 26.1365 11.606 26.2979C11.9443 26.4379 12.2943 26.4927 12.6642 26.5172C13.0188 26.5417 13.4517 26.5417 13.9708 26.5417H14.0292C14.5483 26.5417 14.9812 26.5417 15.3358 26.5184C15.7068 26.4927 16.0557 26.4379 16.394 26.2967C16.7834 26.1356 17.1372 25.8994 17.4353 25.6015C17.7333 25.3036 17.9698 24.95 18.1312 24.5607C18.3003 24.1524 18.3458 23.7207 18.3645 23.2517C18.3664 23.08 18.4118 22.9116 18.4965 22.7623C18.5811 22.6129 18.7023 22.4875 18.8487 22.3977C18.9995 22.3158 19.1686 22.2735 19.3401 22.2748C19.5117 22.276 19.6802 22.3207 19.8298 22.4047C20.2452 22.624 20.6418 22.8002 21.0805 22.8574C21.924 22.9687 22.7771 22.7404 23.4523 22.2227C23.744 21.9987 23.9657 21.7234 24.1722 21.4165C24.3705 21.1202 24.5875 20.7457 24.8465 20.2965L24.8757 20.2452C25.1358 19.796 25.3517 19.4215 25.508 19.1019C25.6713 18.7682 25.7997 18.438 25.8463 18.0752C25.9576 17.2317 25.7293 16.3786 25.2117 15.7034C24.9422 15.3522 24.591 15.0967 24.1943 14.847C24.0466 14.7594 23.9235 14.6358 23.8366 14.4877C23.7496 14.3395 23.7017 14.1717 23.6973 14C23.6973 13.6757 23.8747 13.3537 24.1943 13.153C24.591 12.9034 24.941 12.6479 25.2117 12.2967C25.4682 11.9625 25.6564 11.581 25.7655 11.174C25.8746 10.7671 25.9024 10.3426 25.8475 9.92487C25.7925 9.56624 25.6782 9.21927 25.5092 8.89821C25.3099 8.51062 25.0986 8.12932 24.8757 7.75487L24.8465 7.70354C24.6334 7.3233 24.4085 6.94979 24.1722 6.58354C23.9785 6.27713 23.7353 6.00508 23.4523 5.77854C23.1182 5.52181 22.7367 5.33341 22.3298 5.22411C21.9228 5.11482 21.4983 5.08676 21.0805 5.14154C20.6418 5.19987 20.2452 5.37487 19.8298 5.59537C19.6802 5.67899 19.5119 5.72338 19.3406 5.7244C19.1692 5.72542 19.0004 5.68304 18.8498 5.60121C18.7032 5.51181 18.5817 5.38668 18.4966 5.23753C18.4115 5.08838 18.3657 4.92007 18.3633 4.74837C18.3458 4.27937 18.3003 3.84771 18.13 3.43937C17.9689 3.05 17.7327 2.69617 17.4348 2.39811C17.1369 2.10004 16.7833 1.86357 16.394 1.70221C16.0557 1.56221 15.7057 1.50737 15.3358 1.48287C14.9812 1.45837 14.5483 1.45837 14.0292 1.45837H13.9708ZM12.2757 3.31921C12.3655 3.28187 12.502 3.24804 12.7832 3.22821C13.0713 3.20837 13.4447 3.20837 14 3.20837C14.5553 3.20837 14.9287 3.20837 15.2168 3.22821C15.498 3.24804 15.6345 3.28187 15.7243 3.31921C16.0825 3.46737 16.366 3.75087 16.5142 4.10904C16.5608 4.22104 16.5993 4.39721 16.6145 4.81371C16.6495 5.73771 17.1267 6.62787 17.9737 7.11671C18.8207 7.60554 19.8298 7.57404 20.6477 7.14237C21.0163 6.94754 21.1878 6.89271 21.3092 6.87754C21.6925 6.82689 22.0802 6.93054 22.3872 7.16571C22.4642 7.22521 22.5622 7.32671 22.7197 7.56004C22.8818 7.80037 23.0685 8.12354 23.3462 8.60421C23.6238 9.08487 23.8093 9.40921 23.9365 9.66821C24.0613 9.92137 24.0998 10.0567 24.1115 10.1535C24.1621 10.5369 24.0585 10.9246 23.8233 11.2315C23.7487 11.3284 23.6157 11.4497 23.2633 11.6714C22.4793 12.1637 21.9473 13.0224 21.9473 14C21.9473 14.9777 22.4793 15.8364 23.2633 16.3287C23.6157 16.5504 23.7487 16.6717 23.8233 16.7685C24.059 17.0754 24.1617 17.4627 24.1115 17.8465C24.0998 17.9434 24.0602 18.0799 23.9365 18.3319C23.8093 18.592 23.6238 18.9152 23.3462 19.3959C23.0685 19.8765 22.8807 20.1997 22.7197 20.44C22.5622 20.6734 22.4642 20.7749 22.3872 20.8344C22.0802 21.0695 21.6925 21.1732 21.3092 21.1225C21.1878 21.1074 21.0175 21.0525 20.6477 20.8577C19.831 20.426 18.8207 20.3934 17.9737 20.8822C17.1267 21.371 16.6495 22.2624 16.6145 23.1864C16.5993 23.6029 16.5608 23.779 16.5142 23.891C16.4409 24.0681 16.3334 24.229 16.1979 24.3646C16.0623 24.5001 15.9014 24.6076 15.7243 24.6809C15.6345 24.7182 15.498 24.752 15.2168 24.7719C14.9287 24.7917 14.5553 24.7917 14 24.7917C13.4447 24.7917 13.0713 24.7917 12.7832 24.7719C12.502 24.752 12.3655 24.7182 12.2757 24.6809C12.0986 24.6076 11.9376 24.5001 11.8021 24.3646C11.6666 24.229 11.5591 24.0681 11.4858 23.891C11.4392 23.779 11.4007 23.6029 11.3855 23.1864C11.3505 22.2624 10.8733 21.3722 10.0263 20.8834C9.17932 20.3945 8.17016 20.426 7.35232 20.8577C6.98366 21.0525 6.81216 21.1074 6.69082 21.1225C6.3075 21.1732 5.91975 21.0695 5.61282 20.8344C5.53582 20.7749 5.43782 20.6734 5.28032 20.44C5.06085 20.0985 4.85192 19.7503 4.65383 19.3959C4.37616 18.9152 4.19066 18.5909 4.06349 18.3319C3.93866 18.0787 3.90016 17.9434 3.88849 17.8465C3.83784 17.4632 3.94149 17.0755 4.17666 16.7685C4.25132 16.6717 4.38433 16.5504 4.73666 16.3287C5.52066 15.8364 6.05266 14.9777 6.05266 14C6.05266 13.0224 5.52066 12.1637 4.73666 11.6714C4.38433 11.4497 4.25132 11.3284 4.17666 11.2315C3.94149 10.9246 3.83784 10.5369 3.88849 10.1535C3.90016 10.0567 3.93982 9.92021 4.06349 9.66821C4.19066 9.40804 4.37616 9.08487 4.65383 8.60421C4.93149 8.12354 5.11932 7.80037 5.28032 7.56004C5.43782 7.32671 5.53582 7.22521 5.61282 7.16571C5.91975 6.93054 6.3075 6.82689 6.69082 6.87754C6.81216 6.89271 6.98249 6.94754 7.35232 7.14237C8.16899 7.57404 9.17932 7.60671 10.0263 7.11671C10.8733 6.62787 11.3505 5.73771 11.3855 4.81371C11.4007 4.39721 11.4392 4.22104 11.4858 4.10904C11.634 3.75087 11.9175 3.46737 12.2757 3.31921Z" fill="black" fill-opacity="0.6"/>
</svg>
