<svg width="28" height="28" viewBox="0 0 28 28" fill="none" xmlns="http://www.w3.org/2000/svg">
<path d="M21.875 4.375H21.7262V6.125H21.875C22.1071 6.125 22.3296 6.21719 22.4937 6.38128C22.6578 6.54538 22.75 6.76794 22.75 7V24.5C22.75 24.7321 22.6578 24.9546 22.4937 25.1187C22.3296 25.2828 22.1071 25.375 21.875 25.375H6.125C5.89294 25.375 5.67038 25.2828 5.50628 25.1187C5.34219 24.9546 5.25 24.7321 5.25 24.5V7C5.25 6.76794 5.34219 6.54538 5.50628 6.38128C5.67038 6.21719 5.89294 6.125 6.125 6.125H6.27375V4.375H6.125C5.42881 4.375 4.76113 4.65156 4.26884 5.14384C3.77656 5.63613 3.5 6.30381 3.5 7V24.5C3.5 25.1962 3.77656 25.8639 4.26884 26.3562C4.76113 26.8484 5.42881 27.125 6.125 27.125H21.875C22.5712 27.125 23.2389 26.8484 23.7312 26.3562C24.2234 25.8639 24.5 25.1962 24.5 24.5V7C24.5 6.30381 24.2234 5.63613 23.7312 5.14384C23.2389 4.65156 22.5712 4.375 21.875 4.375Z" fill="#999999"/>
<path d="M20.125 2.625H17.5V0H10.5V2.625H7.875V7.875H20.125V2.625ZM18.375 6.125H9.625V4.375H12.25V1.75H15.75V4.375H18.375V6.125Z" fill="#999999"/>
<path d="M8.75 11.375H19.25V13.125H8.75V11.375ZM8.75 15.75H19.25V17.5H8.75V15.75ZM8.75 20.125H19.25V21.875H8.75V20.125Z" fill="#999999"/>
</svg>
