<svg width="28" height="28" viewBox="0 0 28 28" fill="none" xmlns="http://www.w3.org/2000/svg">
<path d="M4.66666 5.83329C4.66666 5.52387 4.78957 5.22713 5.00837 5.00833C5.22716 4.78954 5.5239 4.66663 5.83332 4.66663H10.5C10.8094 4.66663 11.1062 4.78954 11.3249 5.00833C11.5437 5.22713 11.6667 5.52387 11.6667 5.83329V11.6666C11.6667 11.976 11.5437 12.2728 11.3249 12.4916C11.1062 12.7104 10.8094 12.8333 10.5 12.8333H5.83332C5.5239 12.8333 5.22716 12.7104 5.00837 12.4916C4.78957 12.2728 4.66666 11.976 4.66666 11.6666V5.83329ZM16.3333 5.83329C16.3333 5.52387 16.4562 5.22713 16.675 5.00833C16.8938 4.78954 17.1906 4.66663 17.5 4.66663H22.1667C22.4761 4.66663 22.7728 4.78954 22.9916 5.00833C23.2104 5.22713 23.3333 5.52387 23.3333 5.83329V8.16663C23.3333 8.47605 23.2104 8.77279 22.9916 8.99158C22.7728 9.21038 22.4761 9.33329 22.1667 9.33329H17.5C17.1906 9.33329 16.8938 9.21038 16.675 8.99158C16.4562 8.77279 16.3333 8.47605 16.3333 8.16663V5.83329ZM4.66666 18.6666C4.66666 18.3572 4.78957 18.0605 5.00837 17.8417C5.22716 17.6229 5.5239 17.5 5.83332 17.5H10.5C10.8094 17.5 11.1062 17.6229 11.3249 17.8417C11.5437 18.0605 11.6667 18.3572 11.6667 18.6666V22.1666C11.6667 22.476 11.5437 22.7728 11.3249 22.9916C11.1062 23.2104 10.8094 23.3333 10.5 23.3333H5.83332C5.5239 23.3333 5.22716 23.2104 5.00837 22.9916C4.78957 22.7728 4.66666 22.476 4.66666 22.1666V18.6666ZM16.3333 15.1666C16.3333 14.8572 16.4562 14.5605 16.675 14.3417C16.8938 14.1229 17.1906 14 17.5 14H22.1667C22.4761 14 22.7728 14.1229 22.9916 14.3417C23.2104 14.5605 23.3333 14.8572 23.3333 15.1666V22.1666C23.3333 22.476 23.2104 22.7728 22.9916 22.9916C22.7728 23.2104 22.4761 23.3333 22.1667 23.3333H17.5C17.1906 23.3333 16.8938 23.2104 16.675 22.9916C16.4562 22.7728 16.3333 22.476 16.3333 22.1666V15.1666Z" stroke="#999999" stroke-width="2"/>
</svg>
