<svg width="28" height="28" viewBox="0 0 28 28" fill="none" xmlns="http://www.w3.org/2000/svg">
<path fill-rule="evenodd" clip-rule="evenodd" d="M19.8334 12.8334C22.4116 12.8334 24.5 14.9216 24.5 17.5V24.5H3.5V19.8334C3.5 17.255 5.58835 15.1666 8.16665 15.1666H12.2966C13.1016 13.7666 14.6066 12.8334 16.3334 12.8334H19.8334ZM19.8334 15.1666H16.3334C15.05 15.1666 14 16.2166 14 17.5V22.1666H22.1666V17.5C22.1666 16.2166 21.1166 15.1666 19.8334 15.1666ZM11.6666 17.5H8.16665C6.88335 17.5 5.83335 18.55 5.83335 19.8334V22.1666H11.6666V17.5ZM9.33335 7C11.263 7 12.8334 8.57035 12.8334 10.5C12.8334 12.4296 11.263 14 9.33335 14C7.40365 14 5.83335 12.4296 5.83335 10.5C5.83335 8.57035 7.40365 7 9.33335 7ZM9.33335 9.1875C8.61 9.1875 8.02085 9.7755 8.02085 10.5C8.02085 11.2245 8.61 11.8125 9.33335 11.8125C10.0567 11.8125 10.6459 11.2245 10.6459 10.5C10.6459 9.7755 10.0566 9.1875 9.33335 9.1875ZM18.0834 3.5C20.335 3.5 22.1666 5.33165 22.1666 7.58335C22.1666 9.83505 20.335 11.6666 18.0834 11.6666C15.8316 11.6666 14 9.835 14 7.58335C14 5.33165 15.8316 3.5 18.0834 3.5ZM18.0834 5.83335C17.1185 5.83335 16.3334 6.6185 16.3334 7.58335C16.3334 8.54815 17.1185 9.33335 18.0834 9.33335C19.0481 9.33335 19.8334 8.54815 19.8334 7.58335C19.8334 6.6185 19.0481 5.83335 18.0834 5.83335Z" fill="#999999"/>
</svg>
