<svg width="28" height="28" viewBox="0 0 28 28" fill="none" xmlns="http://www.w3.org/2000/svg">
<path d="M23.3333 11.6666C23.3333 11.3572 23.2104 11.0605 22.9916 10.8417C22.7728 10.6229 22.4761 10.5 22.1667 10.5C21.8573 10.5 21.5605 10.6229 21.3417 10.8417C21.1229 11.0605 21 11.3572 21 11.6666H23.3333ZM7 11.6666C7 11.3572 6.87709 11.0605 6.65829 10.8417C6.4395 10.6229 6.14276 10.5 5.83334 10.5C5.52392 10.5 5.22717 10.6229 5.00838 10.8417C4.78959 11.0605 4.66667 11.3572 4.66667 11.6666H7ZM23.6752 14.8248C23.8952 15.0373 24.1899 15.1549 24.4958 15.1523C24.8017 15.1496 25.0943 15.0269 25.3106 14.8106C25.5269 14.5943 25.6496 14.3017 25.6523 13.9958C25.655 13.6899 25.5374 13.3952 25.3248 13.1751L23.6752 14.8248ZM14 3.49997L14.8248 2.67514C14.6061 2.45642 14.3094 2.33356 14 2.33356C13.6906 2.33356 13.394 2.45642 13.1752 2.67514L14 3.49997ZM2.67517 13.1751C2.56374 13.2828 2.47486 13.4115 2.41372 13.5538C2.35257 13.6962 2.32039 13.8493 2.31904 14.0042C2.3177 14.1591 2.34722 14.3127 2.40588 14.4561C2.46454 14.5995 2.55117 14.7297 2.66071 14.8393C2.77025 14.9488 2.90051 15.0354 3.04389 15.0941C3.18727 15.1528 3.3409 15.1823 3.4958 15.1809C3.65071 15.1796 3.8038 15.1474 3.94614 15.0863C4.08848 15.0251 4.21722 14.9362 4.32484 14.8248L2.67517 13.1751ZM8.16667 25.6666H19.8333V23.3333H8.16667V25.6666ZM23.3333 22.1666V11.6666H21V22.1666H23.3333ZM7 22.1666V11.6666H4.66667V22.1666H7ZM25.3248 13.1751L14.8248 2.67514L13.1752 4.32481L23.6752 14.8248L25.3248 13.1751ZM13.1752 2.67514L2.67517 13.1751L4.32484 14.8248L14.8248 4.32481L13.1752 2.67514ZM19.8333 25.6666C20.7616 25.6666 21.6518 25.2979 22.3082 24.6415C22.9646 23.9851 23.3333 23.0949 23.3333 22.1666H21C21 22.4761 20.8771 22.7728 20.6583 22.9916C20.4395 23.2104 20.1428 23.3333 19.8333 23.3333V25.6666ZM8.16667 23.3333C7.85725 23.3333 7.5605 23.2104 7.34171 22.9916C7.12292 22.7728 7 22.4761 7 22.1666H4.66667C4.66667 23.0949 5.03542 23.9851 5.6918 24.6415C6.34817 25.2979 7.23841 25.6666 8.16667 25.6666V23.3333Z" fill="#999999"/>
</svg>
