<svg width="32" height="32" viewBox="0 0 32 32" fill="none" xmlns="http://www.w3.org/2000/svg">
<path d="M27.3733 21.6666C27.2533 21.6666 24.56 21.1866 24.56 13.3333C24.56 7.78665 21.3333 4.33331 16 4.33331C10.6666 4.33331 7.43996 7.78665 7.43996 13.3333C7.43996 21.3333 4.65329 21.6666 4.66663 21.6666C4.40141 21.6666 4.14706 21.772 3.95952 21.9595C3.77198 22.1471 3.66663 22.4014 3.66663 22.6666C3.66663 22.9319 3.77198 23.1862 3.95952 23.3738C4.14706 23.5613 4.40141 23.6666 4.66663 23.6666H11.1066C11.3292 24.8009 11.9389 25.8226 12.8315 26.557C13.7241 27.2915 14.8441 27.693 16 27.693C17.1559 27.693 18.2758 27.2915 19.1684 26.557C20.061 25.8226 20.6707 24.8009 20.8933 23.6666H27.3466C27.6118 23.6666 27.8662 23.5613 28.0537 23.3738C28.2413 23.1862 28.3466 22.9319 28.3466 22.6666C28.3466 22.4014 28.2413 22.1471 28.0537 21.9595C27.8662 21.772 27.6118 21.6666 27.3466 21.6666H27.3733ZM16 25.6666C15.3817 25.6655 14.779 25.4725 14.2751 25.1142C13.7712 24.756 13.3909 24.2502 13.1866 23.6666H18.8133C18.609 24.2502 18.2287 24.756 17.7248 25.1142C17.2209 25.4725 16.6182 25.6655 16 25.6666ZM7.67996 21.6666C8.63996 20.2133 9.43996 17.6666 9.43996 13.3333C9.43996 8.99998 11.84 6.33331 16 6.33331C20.16 6.33331 22.56 8.87998 22.56 13.3333C22.56 17.7866 23.36 20.2133 24.32 21.6666H7.67996Z" fill="black" fill-opacity="0.6"/>
</svg>
